<svg xmlns="http://www.w3.org/2000/svg" version="1.1" viewBox="0 0 250 225" width="16" height="16">
	<path d="M125.2 222l-21-5.8-48.7-13.4c-5.8-1.6-7.2-4-4.5-9.3L73.6 150c2.4-4.6 2.3-4.8-3-5h-2c-7.6 0-9.4-3-5.5-10L89 89.5c2.5-4.5 2.3-5-2.7-5h-2c-6.6-.3-8.3-3.3-5-9L99.3 41 119 8C123.4 0 126.6.3 131 8c12.3 21 24.8 41.8 37.2 62.7l2 3.4c4.2 7.4 2.8 10-5.6 10.3-5.5.2-6 .8-3.2 5.8 8.5 15.4 17 30.6 25.7 45.8 3.7 6.5 2.2 9.2-5.2 9.4h-2.4c-5 0-5.3.7-3 5.2l22 42c3.5 6.5 2.4 8.8-4.5 10.7-21 6-42.2 11.8-63.4 17.6l-5.4 1.3zm0-10l2-.6 58-16c3.7-1 3-3 1.7-5.4-7.7-14.4-15.2-29-22.8-43.4-4.3-8-3-10.7 6.3-11 5.7-.4 5.7-.4 2.8-5.6l-25.7-45.7c-3.3-6-1.6-9 4.8-9.2 7.2-.2 7.3-.4 3.6-6.7L128 21c-2.6-4.4-3.2-4.4-5.7 0l-27 46c-4.4 7.3-4.3 7.3 4 8 5 .4 6.7 3.5 4.3 8-8.4 15-16.7 29.8-25.3 44.7-4.3 7.5-4.5 7.4 3.8 7.8 6 .3 8 3.2 5.4 8.5-7.7 15-15.5 30.2-23.5 45.2-2.3 4-2 5.6 2.7 6.8l55 15c1 .4 2.4.6 3.5 1zM216 189.8c-3 0-5-1-5.3-3.8-.4-3 1.3-4.8 4-5.4l15.6-3.4c6-1.4 6-1.5 3.2-6.6l-8.7-16.3c-3-5.3-2.2-7.5 3.5-9 2.7-1 2.6-2 1.5-4l-28-51.8c-1.5-2.5-3-2.6-4.5-.2-2 3.2-4.2 6.4-6 9.7-1.7 2.7-4 4-6.8 2.3-2.8-1.6-3.2-4.3-1.6-7 4-6.7 8.3-13.5 13-20 2.8-4.3 6.5-3.6 9.2 1.3L225 112l18 33c3 5.7 2.5 7.5-3.6 9.2-3.4 1-2.3 2.5-1.2 4.4l9.5 17.6c1.6 3 1.2 6-2.2 7-9.8 3-19.8 4.7-29.4 6.6zM33.4 189.8c-8.7-2-18.5-4-28-6.5-4.5-1.2-3.8-5-2-8.2l9-16.6c1.2-2.2 1.3-3.4-1.7-4.2-5-1.3-6-3.6-3.4-8.5 5-9.6 10.3-19 15.4-28.5l21.7-40c4.2-7.5 7.2-7.6 11.8-.3 3.6 5.5 7 11.2 10.8 16.7 1.8 2.8 2 5.4-.8 7.4-3 2.2-5.3.6-7-2-2-3-4-5.8-5.7-8.8-2-3.3-3.3-3-5 .2-6 10.8-12 21.6-17.8 32.4L21 140.3c-1.2 2.4-2 4.3 2 5.2 4.6 1 4.5 4.6 3 8-2.6 5.2-5.5 10.3-8.4 15.4-3.8 6.6-3.7 7 3.5 8.6 5 1.2 10 2 14.7 3.3 2.6.6 4.5 2.4 4 5.4-.5 2.6-2.6 3.4-6.3 3.4z" fill="#000000" />
</svg>